# xmcd CD database file
#
# Track frame offsets:
#	150
#	14007
#	29152
#	44120
#	58640
#	72942
#	85847
#	97732
#	110905
#	122922
#	135832
#	149787
#	162550
#	176315
#	190762
#	205552
#
# Disc length: 2921 seconds
#
# Revision: 1
# Processed by: cddbd v1.5.2PL0 Copyright (c) Steve Scherf et al.
# Submitted via: CDex 1.51
#
DISCID=ec0b6710
DTITLE=Billie Holiday - The Quintessential Billie Holiday - Vol 2
DYEAR=1987
DGENRE=Jazz
TTITLE0=Life Begins When You're In Love
TTITLE1=It's Like Reaching For The Moon
TTITLE2=These Foolish Things
TTITLE3=I Cried For You
TTITLE4=Guess Who
TTITLE5=Did I Remember?
TTITLE6=No Regrets
TTITLE7=Summertime
TTITLE8=Billie's Blues
TTITLE9=A Fine Romance
TTITLE10=I Can't Pretend
TTITLE11=One, Two, Button Your Shoe
TTITLE12=Let's Call A Heart A Heart
TTITLE13=Easy To Love
TTITLE14=With Thee I Swing
TTITLE15=The Way You Look Tonight
EXTD=YEAR: 1987
EXTT0=
EXTT1=
EXTT2=
EXTT3=
EXTT4=
EXTT5=
EXTT6=
EXTT7=
EXTT8=
EXTT9=
EXTT10=
EXTT11=
EXTT12=
EXTT13=
EXTT14=
EXTT15=
PLAYORDER=
